<svg width="50" height="50" viewBox="0 0 50 50" fill="none" xmlns="http://www.w3.org/2000/svg">
<path d="M4.99974 37.6698L5.00023 11.5676C5.00024 10.8942 5.65244 10.4133 6.29579 10.6123L8.42443 11.2709C13.9911 12.9931 20.0094 12.9931 25.5761 11.2709C31.6612 9.38824 38.2682 9.56845 44.2237 11.7795L45.0003 12.0678L44.9998 38.6978C44.9998 39.0992 44.5995 39.3775 44.2232 39.2378V39.2378C38.2677 37.0268 31.6607 36.8466 25.5756 38.7292C20.0089 40.4514 13.9906 40.4514 8.42392 38.7292L4.99974 37.6698Z" stroke="#BC9424" stroke-width="2" stroke-linejoin="round"/>
<path d="M29.9997 24.9792C29.9997 27.7406 27.7612 29.9792 24.9997 29.9792C22.2383 29.9792 19.9997 27.7406 19.9997 24.9792C19.9997 22.2178 22.2383 19.9792 24.9997 19.9792C27.7612 19.9792 29.9997 22.2178 29.9997 24.9792Z" stroke="#BC9424" stroke-width="2" stroke-linejoin="round"/>
</svg>
