<svg width="50" height="50" viewBox="0 0 50 50" fill="none" xmlns="http://www.w3.org/2000/svg">
<path d="M37.364 24.1774L37.6325 23.2141L37.364 24.1774ZM38.2374 25.0571L39.2117 24.8317L38.2374 25.0571ZM26.6706 11.8457L27.0173 10.9077L26.6706 11.8457ZM27.4272 12.8306L26.4382 12.9779L27.4272 12.8306ZM42.2835 4.16666C42.2835 3.61437 41.8358 3.16666 41.2835 3.16666C40.7312 3.16666 40.2835 3.61437 40.2835 4.16666H42.2835ZM40.2835 17.9179C40.2835 18.4702 40.7312 18.9179 41.2835 18.9179C41.8358 18.9179 42.2835 18.4702 42.2835 17.9179H40.2835ZM34.5336 10.0728C33.9813 10.0728 33.5336 10.5205 33.5336 11.0728C33.5336 11.6251 33.9813 12.0728 34.5336 12.0728V10.0728ZM47.9167 12.0728C48.4689 12.0728 48.9167 11.6251 48.9167 11.0728C48.9167 10.5205 48.4689 10.0728 47.9167 10.0728V12.0728ZM15.1133 32.4981C14.8262 32.0263 14.211 31.8767 13.7392 32.1638C13.2674 32.451 13.1178 33.0662 13.405 33.538L15.1133 32.4981ZM28.2911 33.538C28.5783 33.0662 28.4287 32.451 27.9569 32.1638C27.4851 31.8767 26.8699 32.0263 26.5827 32.4981L28.2911 33.538ZM15.0609 22.7969V21.7969C14.5087 21.7969 14.0609 22.2446 14.0609 22.7969H15.0609ZM15.2503 22.7969H16.2503C16.2503 22.2446 15.8026 21.7969 15.2503 21.7969V22.7969ZM26.4646 22.7969V21.7969C25.9124 21.7969 25.4646 22.2446 25.4646 22.7969H26.4646ZM26.6329 22.7969H27.6329C27.6329 22.2446 27.1852 21.7969 26.6329 21.7969V22.7969ZM15.2503 22.9516V23.9516C15.8026 23.9516 16.2503 23.5039 16.2503 22.9516H15.2503ZM15.0609 22.9516H14.0609C14.0609 23.5039 14.5087 23.9516 15.0609 23.9516V22.9516ZM26.6329 22.9516V23.9516C27.1852 23.9516 27.6329 23.5039 27.6329 22.9516H26.6329ZM26.4646 22.9516H25.4646C25.4646 23.5039 25.9124 23.9516 26.4646 23.9516V22.9516ZM27.0173 10.9077C24.9527 10.1446 22.7244 9.72874 20.4025 9.72874V11.7287C22.484 11.7287 24.4776 12.1013 26.324 12.7836L27.0173 10.9077ZM37.6325 23.2141C32.8449 21.8794 29.1739 17.7701 28.4163 12.6833L26.4382 12.9779C27.3113 18.8404 31.5426 23.5926 37.0954 25.1407L37.6325 23.2141ZM39.7217 29.3227C39.7217 27.7786 39.5454 26.2749 39.2117 24.8317L37.2631 25.2824C37.5629 26.5787 37.7217 27.9312 37.7217 29.3227H39.7217ZM20.4025 48.9167C31.0862 48.9167 39.7217 40.13 39.7217 29.3227H37.7217C37.7217 39.0537 29.9537 46.9167 20.4025 46.9167V48.9167ZM1.08333 29.3227C1.08333 40.13 9.71884 48.9167 20.4025 48.9167V46.9167C10.8514 46.9167 3.08333 39.0537 3.08333 29.3227H1.08333ZM20.4025 9.72874C9.71884 9.72874 1.08333 18.5153 1.08333 29.3227H3.08333C3.08333 19.5917 10.8514 11.7287 20.4025 11.7287V9.72874ZM37.0954 25.1407C37.2121 25.1732 37.2546 25.2457 37.2631 25.2824L39.2117 24.8317C39.0184 23.9963 38.3655 23.4185 37.6325 23.2141L37.0954 25.1407ZM26.324 12.7836C26.3366 12.7883 26.3569 12.7995 26.3802 12.8305C26.4049 12.8633 26.4286 12.9138 26.4382 12.9779L28.4163 12.6833C28.3054 11.9387 27.8264 11.2067 27.0173 10.9077L26.324 12.7836ZM40.2835 4.16666V17.9179H42.2835V4.16666H40.2835ZM34.5336 12.0728H47.9167V10.0728H34.5336V12.0728ZM20.848 35.8047C18.4554 35.8047 16.3329 34.5016 15.1133 32.4981L13.405 33.538C14.9569 36.0876 17.7006 37.8047 20.848 37.8047V35.8047ZM26.5827 32.4981C25.3632 34.5016 23.2407 35.8047 20.848 35.8047V37.8047C23.9955 37.8047 26.7392 36.0876 28.2911 33.538L26.5827 32.4981ZM15.0609 23.7969H15.2503V21.7969H15.0609V23.7969ZM26.4646 23.7969H26.6329V21.7969H26.4646V23.7969ZM14.2503 22.7969V22.9516H16.2503V22.7969H14.2503ZM15.2503 21.9516H15.0609V23.9516H15.2503V21.9516ZM16.0609 22.9516V22.7969H14.0609V22.9516H16.0609ZM25.6329 22.7969V22.9516H27.6329V22.7969H25.6329ZM26.6329 21.9516H26.4646V23.9516H26.6329V21.9516ZM27.4646 22.9516V22.7969H25.4646V22.9516H27.4646Z" fill="#BC9425"/>
</svg>
