<svg width="50" height="50" viewBox="0 0 50 50" fill="none" xmlns="http://www.w3.org/2000/svg">
<path d="M7.33752 36.25L9.7665 33.6526C13.2512 37.1806 18.0912 38.5552 23.4418 38.5552C34.0571 38.5552 42.6626 29.9498 42.6626 19.3344C42.6626 14.0697 40.5459 9.2993 37.117 5.82792L39.5453 3.75M24.4804 38.5552V46.25M24.4804 46.25H13.0518M24.4804 46.25H35.3895M34.8375 18.75C34.8375 25.6536 29.2411 31.25 22.3375 31.25C15.434 31.25 9.83752 25.6536 9.83752 18.75C9.83752 11.8464 15.434 6.25 22.3375 6.25C29.2411 6.25 34.8375 11.8464 34.8375 18.75Z" stroke="#BC9424" stroke-width="2" stroke-linecap="round" stroke-linejoin="round"/>
</svg>
